<svg xmlns="http://www.w3.org/2000/svg" height="18" width="18" viewBox="0 0 18 18"><title>nodes</title><g fill="#212121" class="nc-icon-wrapper"><path d="M9,6.5c1.12,0,2.082-.675,2.511-1.638,1.438,.742,2.507,2.096,2.859,3.696,.077,.35,.388,.588,.731,.588,.054,0,.108-.005,.163-.018,.404-.089,.659-.49,.57-.894-.489-2.212-2.054-4.051-4.13-4.925-.213-1.306-1.34-2.309-2.705-2.309-1.517,0-2.75,1.233-2.75,2.75s1.233,2.75,2.75,2.75Z" fill="#212121"></path><path d="M6.186,11.375c-.56-.969-1.626-1.466-2.674-1.355-.077-1.617,.561-3.219,1.769-4.324,.306-.279,.327-.754,.048-1.06-.28-.305-.754-.327-1.06-.047-1.672,1.529-2.482,3.804-2.201,6.038-.445,.362-.769,.847-.921,1.412-.189,.709-.092,1.451,.275,2.086,.367,.636,.96,1.092,1.67,1.282,.236,.063,.477,.095,.716,.095,.477,0,.946-.125,1.37-.37,1.312-.757,1.765-2.442,1.007-3.756Z" fill="#212121"></path><path d="M16.853,12.039c-.19-.709-.646-1.303-1.281-1.67-1.312-.759-2.999-.306-3.757,1.007-.56,.97-.456,2.14,.164,2.992-1.36,.875-3.065,1.123-4.631,.629-.397-.124-.816,.095-.94,.489-.125,.395,.094,.816,.489,.941,.683,.216,1.388,.321,2.09,.321,1.525,0,3.032-.501,4.263-1.44,.305,.114,.62,.192,.943,.192,.239,0,.479-.031,.716-.095,.71-.19,1.303-.646,1.67-1.281s.465-1.377,.275-2.086Z" data-color="color-2"></path></g></svg>