<svg xmlns="http://www.w3.org/2000/svg" height="18" width="18" viewBox="0 0 18 18"><title>notification</title><g fill="#212121" class="nc-icon-wrapper"><path d="M12.75,16.5H4.25c-1.517,0-2.75-1.233-2.75-2.75V5.25c0-1.517,1.233-2.75,2.75-2.75h5.25c.414,0,.75,.336,.75,.75s-.336,.75-.75,.75H4.25c-.689,0-1.25,.561-1.25,1.25V13.75c0,.689,.561,1.25,1.25,1.25H12.75c.689,0,1.25-.561,1.25-1.25v-5.25c0-.414,.336-.75,.75-.75s.75,.336,.75,.75v5.25c0,1.517-1.233,2.75-2.75,2.75Z" fill="#212121"></path><circle cx="14.5" cy="3.5" r="2.5" data-color="color-2"></circle></g></svg>