<svg xmlns="http://www.w3.org/2000/svg" height="18" width="18" viewBox="0 0 18 18"><title>star sparkle</title><g fill="#212121" class="nc-icon-wrapper"><path d="M4.743,2.492l-.946-.315-.316-.947c-.102-.306-.609-.306-.711,0l-.316,.947-.946,.315c-.153,.051-.257,.194-.257,.356s.104,.305,.257,.356l.946,.315,.316,.947c.051,.153,.194,.256,.355,.256s.305-.104,.355-.256l.316-.947,.946-.315c.153-.051,.257-.194,.257-.356s-.104-.305-.257-.356Z" data-color="color-2"></path><path d="M9,13.964c0-.863,.55-1.625,1.369-1.897l.55-.184,.184-.551c.267-.798,1.029-1.332,1.897-1.332,.359,0,.689,.11,.984,.273l2.789-2.718c.205-.199,.278-.498,.19-.769-.088-.271-.323-.469-.605-.51l-4.62-.671L9.672,1.418c-.252-.512-1.093-.512-1.345,0l-2.066,4.186-4.62,.671c-.282,.041-.517,.239-.605,.51-.088,.271-.015,.57,.19,.769l3.343,3.258-.79,4.601c-.048,.282,.067,.566,.298,.734,.232,.167,.537,.19,.79,.057l4.132-2.173,.012,.006c0-.025-.012-.048-.012-.073Z" fill="#212121"></path><path d="M15.158,13.49l-1.263-.421-.421-1.263c-.137-.408-.812-.408-.949,0l-.421,1.263-1.263,.421c-.204,.068-.342,.259-.342,.474s.138,.406,.342,.474l1.263,.421,.421,1.263c.068,.204,.26,.342,.475,.342s.406-.138,.475-.342l.421-1.263,1.263-.421c.204-.068,.342-.259,.342-.474s-.138-.406-.342-.474Z" data-color="color-2"></path><circle cx="14.25" cy="3.25" r=".75" data-color="color-2"></circle></g></svg>