<svg xmlns="http://www.w3.org/2000/svg" height="18" width="18" viewBox="0 0 18 18"><title>office</title><g fill="#212121" class="nc-icon-wrapper"><path d="M15.25,5.5h-4c-.965,0-1.75,.785-1.75,1.75V15.5h-1v-5.75c0-.965-.785-1.75-1.75-1.75H2.75c-.965,0-1.75,.785-1.75,1.75v5.5c0,.965,.785,1.75,1.75,1.75H15.25c.965,0,1.75-.785,1.75-1.75V7.25c0-.965-.785-1.75-1.75-1.75ZM5.25,14.5h-1c-.414,0-.75-.336-.75-.75s.336-.75,.75-.75h1c.414,0,.75,.336,.75,.75s-.336,.75-.75,.75Zm0-2.5h-1c-.414,0-.75-.336-.75-.75s.336-.75,.75-.75h1c.414,0,.75,.336,.75,.75s-.336,.75-.75,.75Zm8.5,2.5h-1c-.414,0-.75-.336-.75-.75s.336-.75,.75-.75h1c.414,0,.75,.336,.75,.75s-.336,.75-.75,.75Zm0-2.5h-1c-.414,0-.75-.336-.75-.75s.336-.75,.75-.75h1c.414,0,.75,.336,.75,.75s-.336,.75-.75,.75Zm0-2.5h-1c-.414,0-.75-.336-.75-.75s.336-.75,.75-.75h1c.414,0,.75,.336,.75,.75s-.336,.75-.75,.75Z" fill="#212121"></path><path d="M5.25,7c-.414,0-.75-.336-.75-.75v-1.802c0-.731,.461-1.392,1.148-1.643L11.147,.789c.537-.197,1.136-.119,1.604,.208s.748,.863,.748,1.435v1.318c0,.414-.336,.75-.75,.75s-.75-.336-.75-.75v-1.318c0-.113-.067-.177-.107-.205s-.123-.067-.229-.03l-5.5,2.017c-.099,.036-.164,.13-.164,.234v1.802c0,.414-.336,.75-.75,.75Z" data-color="color-2"></path></g></svg>