<svg xmlns="http://www.w3.org/2000/svg" height="18" width="18" viewBox="0 0 18 18"><title>window pointer</title><g fill="#212121" class="nc-icon-wrapper"><path d="M9.286,16H3.75c-1.517,0-2.75-1.233-2.75-2.75V4.75c0-1.517,1.233-2.75,2.75-2.75H14.25c1.517,0,2.75,1.233,2.75,2.75v4.902c0,.414-.336,.75-.75,.75s-.75-.336-.75-.75V4.75c0-.689-.561-1.25-1.25-1.25H3.75c-.689,0-1.25,.561-1.25,1.25V13.25c0,.689,.561,1.25,1.25,1.25h5.536c.414,0,.75,.336,.75,.75s-.336,.75-.75,.75Z" fill="#212121"></path><circle cx="4.25" cy="5.25" r=".75" fill="#212121"></circle><circle cx="6.75" cy="5.25" r=".75" fill="#212121"></circle><path d="M17.31,11.902l-6.396-2.337c-.389-.142-.812-.049-1.104,.244-.293,.292-.387,.715-.244,1.104l2.338,6.397c.151,.415,.547,.69,.987,.69h.022c.449-.01,.843-.304,.978-.731l.82-2.56,2.562-.819c.427-.138,.72-.532,.728-.981,.009-.449-.269-.854-.689-1.007Z" data-color="color-2"></path></g></svg>